<svg width="31" height="31" viewBox="0 0 31 31" fill="none" xmlns="http://www.w3.org/2000/svg">
<path d="M15.25 4H10.25C6.79822 4 4 6.79822 4 10.25V20.25C4 23.7017 6.79822 26.5 10.25 26.5H20.25C23.7017 26.5 26.5 23.7017 26.5 20.25V10.25C26.5 6.79822 23.7017 4 20.25 4H15.25Z" stroke="#F2EBE5" stroke-width="2.5" stroke-linecap="round" stroke-linejoin="round"/>
<path d="M15.25 10.25C18.0114 10.25 20.25 12.4886 20.25 15.25C20.25 18.0114 18.0114 20.25 15.25 20.25C12.4886 20.25 10.25 18.0114 10.25 15.25C10.25 12.4886 12.4886 10.25 15.25 10.25Z" stroke="#F2EBE5" stroke-width="2.5" stroke-linecap="round" stroke-linejoin="round"/>
<path d="M21.6045 10.8021C22.6573 10.8021 23.5107 9.94861 23.5107 8.89581C23.5107 7.84302 22.6573 6.98956 21.6045 6.98956C20.5517 6.98956 19.6982 7.84302 19.6982 8.89581C19.6982 9.94861 20.5517 10.8021 21.6045 10.8021Z" fill="#F2EBE5"/>
</svg>
